<svg xmlns="http://www.w3.org/2000/svg" width="16" height="16" viewBox="0 0 16 16">
  <metadata><?xpacket begin="﻿" id="W5M0MpCehiHzreSzNTczkc9d"?>
<x:xmpmeta xmlns:x="adobe:ns:meta/" x:xmptk="Adobe XMP Core 5.6-c138 79.159824, 2016/09/14-01:09:01        ">
   <rdf:RDF xmlns:rdf="http://www.w3.org/1999/02/22-rdf-syntax-ns#">
      <rdf:Description rdf:about=""/>
   </rdf:RDF>
</x:xmpmeta>
                                                                                                    
                                                                                                    
                                                                                                    
                                                                                                    
                                                                                                    
                                                                                                    
                                                                                                    
                                                                                                    
                                                                                                    
                                                                                                    
                                                                                                    
                                                                                                    
                                                                                                    
                                                                                                    
                                                                                                    
                                                                                                    
                                                                                                    
                                                                                                    
                                                                                                    
                                                                                                    
                           
<?xpacket end="w"?></metadata>
<defs>
    <style>
      .cls-1 {
        fill-rule: evenodd;
      }
    </style>
  </defs>
  <path id="타원_1" data-name="타원 1" class="cls-1" d="M9.66,15.407c-0.183,0-.363-0.011-0.542-0.027-0.078-.007-0.156-0.015-0.233-0.025s-0.157-.023-0.234-0.036A6.262,6.262,0,0,1,8,15.18H8c-0.107.028-.213,0.059-0.322,0.083-0.055.012-.11,0.021-0.165,0.032q-0.207.039-.419,0.064c-0.057.007-.113,0.014-0.17,0.019-0.193.018-.387,0.03-0.584,0.03A6.343,6.343,0,0,1,0,9.061,6.411,6.411,0,0,1,.039,8.368c0.008-.074.023-0.147,0.034-0.22C0.095,8,.118,7.844.151,7.7,0.169,7.612.193,7.53,0.215,7.447c0.035-.134.072-0.268,0.116-0.4C0.359,6.964.39,6.881,0.422,6.8c0.048-.126.1-0.25,0.155-0.372,0.036-.08.074-0.158,0.114-0.236,0.062-.121.128-0.239,0.2-0.356C0.93,5.763.972,5.691,1.017,5.62c0.078-.12.161-0.236,0.246-0.35,0.045-.06.088-0.122,0.135-0.18,0.1-.129.213-0.251,0.326-0.371C1.76,4.681,1.793,4.641,1.829,4.6a6.376,6.376,0,0,1,.489-0.448h0a6.334,6.334,0,0,1,11.819.412,6.358,6.358,0,0,1,1.352,2L15.5,6.587c0.072,0.17.134,0.344,0.191,0.521,0.007,0.021.016,0.041,0.023,0.063,0.051,0.164.092,0.333,0.13,0.5,0.008,0.036.02,0.07,0.027,0.106,0.033,0.163.056,0.331,0.076,0.5,0.006,0.045.016,0.088,0.02,0.133a6.426,6.426,0,0,1,.033.65A6.343,6.343,0,0,1,9.66,15.407ZM7.994,4.825H7.288V7.68H5.73V4.825H5.024v6.346H5.73V8.315H7.288v2.856H7.994V4.825ZM11.517,8.85h-0.67V9.675a0.759,0.759,0,1,1-1.485,0V6.321a0.759,0.759,0,1,1,1.485,0V6.928h0.67V6.357a1.374,1.374,0,0,0-1.431-1.6,1.372,1.372,0,0,0-1.422,1.6V9.639a1.372,1.372,0,0,0,1.422,1.6,1.374,1.374,0,0,0,1.431-1.6V8.85Z"/>
</svg>
